Coordinates
version=1
nRows=29
nColumns=24
inDegrees=yes

Units are S.I. units (second, meters, Newtons, ...)
Angles are in degrees.

endheader
time	pelvis_tilt	pelvis_list	pelvis_rotation	pelvis_tx	pelvis_ty	pelvis_tz	hip_flexion_r	hip_adduction_r	hip_rotation_r	knee_angle_r	ankle_angle_r	subtalar_angle_r	mtp_angle_r	hip_flexion_l	hip_adduction_l	hip_rotation_l	knee_angle_l	ankle_angle_l	subtalar_angle_l	mtp_angle_l	lumbar_extension	lumbar_bending	lumbar_rotation
      7.58000000	     -1.47490050	     -0.99307960	     -3.50443673	     -1.42187141	      0.66366253	      0.16480514	    -12.31349304	      5.55517379	      0.51592789	    -17.52990958	     16.24862572	     -2.85295253	      0.00000000	     20.87755295	     -0.21640044	     -4.70628184	     -5.13510757	      3.94406658	    -10.44742923	      0.00000000	     -9.08297541	     -1.47004598	      4.53246937
      7.59000000	     -1.50580802	     -0.41137416	     -3.65324840	     -1.41071511	      0.66338033	      0.16444100	    -12.24734698	      4.78743822	      0.34243176	    -19.23277474	     14.76200417	     -3.12439466	      0.00000000	     20.45824876	      0.45416814	     -4.18226198	     -5.75551176	      1.57623004	    -12.47069002	      0.00000000	     -8.62115681	     -2.22420521	      4.40067897
      7.60000000	     -1.55718510	      0.29340067	     -3.58612667	     -1.39964926	      0.66334599	      0.16396019	    -11.96434450	      3.94487801	     -0.04503435	    -21.17241594	     12.85581203	     -3.55647801	      0.00000000	     20.18696290	      1.29646318	     -3.56519858	     -6.53054878	     -0.48277257	    -13.95621244	      0.00000000	     -8.14420558	     -3.12100348	      4.01099608
      7.61000000	     -1.54039863	      1.05602325	     -3.35979760	     -1.38871612	      0.66365311	      0.16339089	    -11.53953933	      3.07358839	     -0.52870826	    -23.37152017	     10.43309355	     -4.14228665	      0.00000000	     19.95146899	      2.23671371	     -2.90213240	     -7.51846600	     -2.02350999	    -14.94267484	      0.00000000	     -7.78197168	     -4.08922522	      3.44185646
      7.62000000	     -1.48525736	      1.82654107	     -3.01368884	     -1.37798184	      0.66421251	      0.16270608	    -10.87798310	      2.18257967	     -1.16309888	    -25.93193545	      7.62731664	     -4.71931785	      0.00000000	     19.79781938	      3.21418251	     -2.34547282	     -8.81074932	     -2.75727355	    -15.36225865	      0.00000000	     -7.52576760	     -5.05632323	      2.81182215
      7.63000000	     -1.44357095	      2.50268135	     -2.66704162	     -1.36746161	      0.66493024	      0.16195690	     -9.94320782	      1.37540301	     -1.62264675	    -28.79606619	      4.13404378	     -5.45890451	      0.00000000	     19.65387167	      4.11527696	     -1.75204060	    -10.19741084	     -2.87714675	    -15.74679420	      0.00000000	     -7.31517322	     -5.88172641	      2.18791884
      7.64000000	     -1.38891383	      3.06248187	     -2.41062060	     -1.35721466	      0.66573687	      0.16120607	     -8.72434951	      0.64173616	     -1.89609625	    -32.00142894	      0.16559512	     -6.22553576	      0.00000000	     19.44289465	      4.88785674	     -1.26983522	    -11.56233639	     -2.40642544	    -16.00985635	      0.00000000	     -7.19015391	     -6.54986854	      1.72680949
      7.65000000	     -1.31670969	      3.54248544	     -2.27739459	     -1.34728858	      0.66652982	      0.16044808	     -7.22007284	     -0.07344782	     -2.01703739	    -35.54316362	     -3.91586368	     -6.92421057	      0.00000000	     19.15918197	      5.55659830	     -1.00945761	    -12.85871055	     -1.46660803	    -16.14899888	      0.00000000	     -7.17232227	     -7.09788808	      1.47156033
      7.66000000	     -1.22929461	      3.96176989	     -2.33292215	     -1.33768529	      0.66726532	      0.15976298	     -5.45572240	     -0.77489535	     -1.91157752	    -39.35120625	     -7.81683659	     -7.54786100	      0.00000000	     18.74845193	      6.11636776	     -0.99132657	    -13.93852488	     -0.24519154	    -16.14485203	      0.00000000	     -7.24237916	     -7.55472297	      1.45535032
      7.67000000	     -1.13140417	      4.36062634	     -2.56454451	     -1.32839398	      0.66791386	      0.15917280	     -3.47979138	     -1.46855662	     -1.59565831	    -43.31938840	    -11.20620649	     -8.19177515	      0.00000000	     18.20572920	      6.60761455	     -1.20709801	    -14.74663017	      1.08493453	    -16.01929424	      0.00000000	     -7.38574187	     -7.97374057	      1.62228973
      7.68000000	     -1.02464582	      4.73837535	     -2.91562747	     -1.31937907	      0.66848607	      0.15866761	     -1.36678207	     -2.10830693	     -1.12040506	    -47.30307800	    -13.91884532	     -9.07904988	      0.00000000	     17.54127727	      7.04337578	     -1.58384553	    -15.29200893	      2.45954958	    -15.71797386	      0.00000000	     -7.58049694	     -8.35368233	      1.92822893
      7.69000000	     -0.90365046	      5.11013623	     -3.31448293	     -1.31059698	      0.66901917	      0.15822694	      0.80186643	     -2.67813527	     -0.56677241	    -51.15593453	    -15.83795213	    -10.34977687	      0.00000000	     16.77584185	      7.45882146	     -2.08316349	    -15.61310243	      3.72405864	    -15.40756114	      0.00000000	     -7.82970795	     -8.72055880	      2.25017547
      7.70000000	     -0.76992439	      5.44501222	     -3.70572200	     -1.30197457	      0.66957212	      0.15784350	      2.94976546	     -3.10955951	      0.04546105	    -54.73587901	    -16.98491984	    -12.14522574	      0.00000000	     15.92316247	      7.83650852	     -2.60286676	    -15.75804348	      4.89804536	    -15.04174248	      0.00000000	     -8.10241362	     -9.02895322	      2.44805084
      7.71000000	     -0.64836274	      5.68243222	     -4.02226528	     -1.29345618	      0.67019692	      0.15747753	      5.03519284	     -3.33851097	      0.62915151	    -57.91162627	    -17.42319719	    -14.48551858	      0.00000000	     15.02414568	      8.12960374	     -3.02272837	    -15.78588109	      5.98272901	    -14.55997165	      0.00000000	     -8.36346240	     -9.20490425	      2.52401021
      7.72000000	     -0.53531092	      5.80886331	     -4.21382107	     -1.28501631	      0.67093272	      0.15707979	      7.02154996	     -3.38026785	      1.10397908	    -60.61718272	    -17.22238255	    -17.18841070	      0.00000000	     14.10232576	      8.33589399	     -3.28573818	    -15.76516124	      6.99708420	    -14.01175968	      0.00000000	     -8.62172906	     -9.23421312	      2.45444843
      7.73000000	     -0.43903814	      5.80231169	     -4.25960745	     -1.27663242	      0.67177278	      0.15662456	      8.90634682	     -3.23969002	      1.43836265	    -62.83007165	    -16.42701555	    -20.01902290	      0.00000000	     13.17856212	      8.43752487	     -3.34794218	    -15.73652472	      7.96653726	    -13.48602990	      0.00000000	     -8.87264498	     -9.09281809	      2.22213297
      7.74000000	     -0.34316686	      5.68726597	     -4.15833173	     -1.26828644	      0.67270249	      0.15605552	     10.67833830	     -2.99389969	      1.60693955	    -64.56121272	    -14.99415368	    -22.51684974	      0.00000000	     12.21999394	      8.48129542	     -3.07910728	    -15.66811417	      8.86355705	    -13.20390564	      0.00000000	     -9.13160004	     -8.79753127	      1.82227574
      7.75000000	     -0.28063864	      5.36706793	     -3.94009525	     -1.26003332	      0.67368676	      0.15547288	     12.36229379	     -2.52381042	      1.64932381	    -65.78199696	    -13.30214705	    -24.76601856	      0.00000000	     11.31818195	      8.31043929	     -2.73690831	    -15.65979040	      9.61146697	    -12.98426399	      0.00000000	     -9.38460312	     -8.27758061	      1.38317011
      7.76000000	     -0.20547572	      5.00201999	     -3.66945023	     -1.25186377	      0.67466223	      0.15487680	     13.95736817	     -2.03417115	      1.62577262	    -66.57863730	    -11.46907491	    -26.56002486	      0.00000000	     10.41900601	      8.10184019	     -2.29969806	    -15.67094861	     10.23679601	    -12.90804652	      0.00000000	     -9.67270216	     -7.72613190	      0.98715242
      7.77000000	     -0.19507834	      4.52128448	     -3.28998705	     -1.24372005	      0.67555916	      0.15419180	     15.51210291	     -1.47445378	      1.46899425	    -66.92899791	     -9.74320562	    -27.87208757	      0.00000000	      9.57444918	      7.78116185	     -1.71882673	    -15.66969783	     10.91724680	    -12.81384128	      0.00000000	     -9.88246923	     -7.01135375	      0.45881300
      7.78000000	     -0.20397362	      4.02656728	     -2.85595466	     -1.23562715	      0.67635404	      0.15349124	     17.02268754	     -0.98191597	      1.19225109	    -66.92263331	     -7.71150036	    -28.25431887	      0.00000000	      8.76634377	      7.41959222	     -1.23661287	    -15.67036063	     11.59277929	    -12.51656602	      0.00000000	    -10.07779799	     -6.30103450	     -0.06587079
      7.79000000	     -0.21876721	      3.52235825	     -2.41341467	     -1.22760052	      0.67702539	      0.15282918	     18.46216967	     -0.52493271	      0.88400296	    -66.54501859	     -5.95506199	    -28.35541153	      0.00000000	      7.96480044	      7.03635450	     -0.71115323	    -15.64795307	     12.24769390	    -12.37804830	      0.00000000	    -10.27783351	     -5.60157938	     -0.54317843
      7.80000000	     -0.27611768	      3.01101336	     -1.96450287	     -1.21963398	      0.67754075	      0.15221204	     19.85473028	     -0.10131680	      0.54556620	    -65.77864948	     -4.77414268	    -28.56787757	      0.00000000	      7.20902304	      6.62670229	     -0.17117257	    -15.60115818	     12.90279435	    -12.34576346	      0.00000000	    -10.43056633	     -4.91427928	     -0.96780018
      7.81000000	     -0.30409738	      2.62520167	     -1.50814557	     -1.21172888	      0.67792733	      0.15161117	     21.17157531	      0.10147550	      0.14398454	    -64.76218976	     -2.92032001	    -27.74161536	      0.00000000	      6.44855013	      6.31048482	      0.20468378	    -15.56463703	     13.51370789	    -11.89368442	      0.00000000	    -10.63082501	     -4.37922578	     -1.44465840
      7.82000000	     -0.39770913	      2.24059942	     -1.04689726	     -1.20384346	      0.67812874	      0.15107404	     22.43005979	      0.28595919	     -0.25913717	    -63.33471554	     -2.03843999	    -27.67021123	      0.00000000	      5.75169889	      5.98670534	      0.66913046	    -15.50470901	     14.13783721	    -11.73667736	      0.00000000	    -10.73964460	     -3.85681906	     -1.91519478
      7.83000000	     -0.47734714	      1.94998812	     -0.55856967	     -1.19598347	      0.67818258	      0.15054861	     23.57924620	      0.28761752	     -0.76173578	    -61.59772212	     -1.24050795	    -27.64599569	      0.00000000	      5.05537454	      5.74446096	      1.10725037	    -15.45109152	     14.73153722	    -11.53133260	      0.00000000	    -10.86408958	     -3.45375418	     -2.31159273
      7.84000000	     -0.55766255	      1.74134240	     -0.09439169	     -1.18808833	      0.67809636	      0.15006838	     24.61216726	      0.17248581	     -1.26030731	    -59.54088106	     -0.60194523	    -27.67239307	      0.00000000	      4.34889040	      5.57281051	      1.52132730	    -15.37292259	     15.31172535	    -11.27498342	      0.00000000	    -10.96174826	     -3.13838757	     -2.73928726
      7.85000000	     -0.64293630	      1.60829648	      0.34770757	     -1.18015988	      0.67786363	      0.14965936	     25.53102629	     -0.05132146	     -1.78247315	    -57.17356472	     -0.20415240	    -27.86651192	      0.00000000	      3.63358615	      5.46329385	      1.90836188	    -15.26684393	     15.89148078	    -11.02659300	      0.00000000	    -11.03064487	     -2.92476784	     -3.15421164
      7.86000000	     -0.66449415	      1.49835064	      0.75958084	     -1.17215185	      0.67757816	      0.14932877	     26.21634946	     -0.29665831	     -2.30058120	    -54.43026146	     -0.41938955	    -28.64410456	      0.00000000	      2.84006345	      5.34635702	      2.16496583	    -15.15354095	     16.53718570	    -10.55226892	      0.00000000	    -11.14843018	     -2.73010460	     -3.53738932
